# xmcd
#
# Track frame offsets:
# 150
# 21552
# 42589
#
# Disc length: 715 seconds
#
#
# Revision: 0
# Processed by: cddbd v1.4PL0 Copyright (c) Steve Scherf et al.
# Submitted via: FreeRIP 2.30 
#
DISCID=2502c903
DTITLE=Eric Sardinas - 3 Track CD Single
DYEAR=2000
DGENRE=Blues
TTITLE0=Angel Face
TTITLE1=Write Me A Few Lines (alternate version)
TTITLE2=My Baby's Got Something (alternate version)
EXTD=
EXTT0=
EXTT1=
EXTT2=
PLAYORDER=
